<svg height="50" viewBox="0 0 50 50" width="50" xmlns="http://www.w3.org/2000/svg"><g fill="none" fill-rule="evenodd"><path d="m21.3952742 38.8921898 5.8546918-4.3921862h6.7499839c1.6546744 0 2.9999929-1.3453185 2.9999929-2.9999929v-13.4999606c0-1.6546816-1.3453185-3-2.9999929-3h-17.9999499c-1.6546816 0-3 1.3453184-3 3v13.4999606c0 1.6546744 1.3453184 2.9999929 3 2.9999929h4.4999821v3.9374906c0 .4593647.5250079.7265608.8952921.4546956zm4.0500086-12.6421666h-.8906228c-.3843833 0-.7077926-.2906334-.7453291-.6750167l-.5999894-5.9999857c-.0421599-.4405964.3046868-.8249797.745329-.8249797h2.0906017c.4453115 0 .792204.3843833.7453291.8249797l-.5999894 5.9999857c-.0375366.3843833-.3609458.6750167-.7453291.6750167zm-.4453078 4.4999965c-.8296983 0-1.5-.6703089-1.5-1.5 0-.8296983.6703017-1.5 1.5-1.5.8296911 0 1.5.6703017 1.5 1.5 0 .8296911-.6703089 1.5-1.5 1.5z" fill="#7b9757" fill-rule="nonzero"/><rect height="48" rx="6" stroke="#7b9757" stroke-width="2" width="48" x="1" y="1"/></g></svg>